<svg width="420.2" height="72.401" viewBox="0 0 420.2 72.401" xmlns="http://www.w3.org/2000/svg"><g id="svgGroup" stroke-linecap="round" fill-rule="evenodd" font-size="9pt" stroke="#000" stroke-width="0.25mm" fill="#000" style="stroke:#000;stroke-width:0.25mm;fill:#000"><path d="M 310.1 44.6 L 310.1 1.2 L 319.6 1.2 L 319.6 43.1 A 39.482 39.482 0 0 0 320 48.911 Q 320.881 54.819 323.7 58.6 A 13.242 13.242 0 0 0 332.156 63.756 A 20.418 20.418 0 0 0 336 64.1 A 21.386 21.386 0 0 0 341.004 63.551 A 13.455 13.455 0 0 0 348.7 58.75 A 17.382 17.382 0 0 0 351.496 53.355 Q 352.286 50.936 352.631 47.994 A 42.042 42.042 0 0 0 352.9 43.1 L 352.9 1.2 L 362.1 1.2 L 362.1 44.2 A 39.957 39.957 0 0 1 361.478 51.431 A 28.663 28.663 0 0 1 358.85 59.35 Q 355.6 65.7 349.75 69.05 A 25.023 25.023 0 0 1 341.189 72.004 A 32.816 32.816 0 0 1 336 72.4 A 32.706 32.706 0 0 1 327.995 71.475 A 22.492 22.492 0 0 1 317 65.2 Q 310.888 58.823 310.19 47.581 A 48.096 48.096 0 0 1 310.1 44.6 Z M 68.8 65.3 L 73.6 57.3 Q 77.2 60.3 81.7 62.2 A 23.348 23.348 0 0 0 87.07 63.71 A 32.118 32.118 0 0 0 92.2 64.1 A 27.981 27.981 0 0 0 96.747 63.754 Q 99.17 63.354 101.131 62.494 A 13.701 13.701 0 0 0 103.6 61.1 Q 107.648 58.209 107.795 53.366 A 12.116 12.116 0 0 0 107.8 53 A 11.94 11.94 0 0 0 107.463 50.107 A 9.816 9.816 0 0 0 106.6 47.85 A 8.097 8.097 0 0 0 105.4 46.194 Q 104.13 44.813 101.984 43.471 A 25.81 25.81 0 0 0 101.95 43.45 Q 98.834 41.508 93.065 39.28 A 118.584 118.584 0 0 0 91.8 38.8 Q 84.6 36 80.3 33.15 A 21.931 21.931 0 0 1 77.211 30.703 Q 75.494 29.053 74.438 27.188 A 13.303 13.303 0 0 1 74.15 26.65 Q 72.3 23 72.3 18 Q 72.3 13 75.05 8.95 Q 77.8 4.9 83.15 2.45 A 25.558 25.558 0 0 1 89.05 0.615 Q 92.293 0 96.1 0 Q 102.3 0 107.25 1.25 Q 112.2 2.5 116.9 4.8 L 113.4 12.9 A 31.496 31.496 0 0 0 109.274 10.881 A 41.686 41.686 0 0 0 105.45 9.55 Q 100.9 8.2 95.9 8.2 A 27.187 27.187 0 0 0 91.87 8.48 Q 89.738 8.8 88 9.487 A 12.616 12.616 0 0 0 85.5 10.8 A 9.902 9.902 0 0 0 83.337 12.765 A 7.359 7.359 0 0 0 81.7 17.5 A 10.464 10.464 0 0 0 81.992 20.022 A 8.562 8.562 0 0 0 82.8 22.1 Q 83.856 24.019 86.891 25.847 A 23.503 23.503 0 0 0 87.15 26 A 33.003 33.003 0 0 0 89.366 27.172 Q 91.635 28.275 94.846 29.523 A 130.016 130.016 0 0 0 96.9 30.3 A 81.228 81.228 0 0 1 101.878 32.329 Q 106.264 34.3 109.25 36.4 A 26.044 26.044 0 0 1 112.29 38.878 Q 114.513 41.006 115.7 43.35 A 17.579 17.579 0 0 1 117.441 49.213 A 22.155 22.155 0 0 1 117.6 51.9 A 21.71 21.71 0 0 1 116.933 57.401 A 17.105 17.105 0 0 1 114.35 63 Q 111.1 67.6 105.35 70 A 30.521 30.521 0 0 1 97.94 72.004 A 40.027 40.027 0 0 1 92.2 72.4 Q 84.9 72.4 78.9 70.45 A 38.206 38.206 0 0 1 73.533 68.268 A 28.433 28.433 0 0 1 68.8 65.3 Z M 181.3 68.2 L 172.4 72.4 L 163.7 53.4 A 30.586 30.586 0 0 0 161.109 48.827 Q 158.603 45.222 155.4 43.3 Q 151.045 40.687 144.564 40.35 A 37.847 37.847 0 0 0 142.6 40.3 L 141.1 40.3 L 141.1 71.2 L 131.6 71.2 L 131.6 1.4 Q 136.9 0.9 141.75 0.65 A 187.94 187.94 0 0 1 148.066 0.435 A 226.267 226.267 0 0 1 152.1 0.4 Q 164.9 0.4 171.35 5.6 A 17.414 17.414 0 0 1 175.98 11.134 Q 177.8 14.644 177.8 19 A 19.88 19.88 0 0 1 177.149 24.22 A 14.672 14.672 0 0 1 173.45 30.75 Q 169.1 35.2 160.9 37.4 A 23.656 23.656 0 0 1 164.329 39.263 A 20.427 20.427 0 0 1 165.7 40.25 Q 167.669 41.797 169.505 44.31 A 29.29 29.29 0 0 1 169.75 44.65 Q 171.7 47.4 173.7 51.8 L 181.3 68.2 Z M 269.6 71.2 L 260.1 71.2 L 260.1 1.2 L 301.6 1.2 L 301.6 9.4 L 269.6 9.4 L 269.6 30.8 L 296.3 30.8 L 296.3 38.6 L 269.6 38.6 L 269.6 71.2 Z M 64.8 68.7 L 56.1 72.2 L 48.3 52.2 L 15.9 52.2 L 8.1 72 L 0 68.7 L 27.4 1.2 L 37.8 1.2 L 64.8 68.7 Z M 250.1 68.7 L 241.4 72.2 L 233.6 52.2 L 201.2 52.2 L 193.4 72 L 185.3 68.7 L 212.7 1.2 L 223.1 1.2 L 250.1 68.7 Z M 420.2 71.2 L 378.6 71.2 L 378.6 1.2 L 388.1 1.2 L 388.1 62.7 L 420.2 62.7 L 420.2 71.2 Z M 32.1 10.6 L 18.9 44.2 L 45.2 44.2 L 32.1 10.6 Z M 217.4 10.6 L 204.2 44.2 L 230.5 44.2 L 217.4 10.6 Z M 141.1 8.8 L 141.1 32.3 L 152.1 32.3 A 26.489 26.489 0 0 0 157.023 31.869 Q 160.952 31.125 163.8 29.1 Q 168.3 25.9 168.3 19.9 A 9.811 9.811 0 0 0 165.027 12.436 A 13.272 13.272 0 0 0 164.1 11.65 A 13.923 13.923 0 0 0 159.736 9.429 Q 157.807 8.818 155.477 8.57 A 31.944 31.944 0 0 0 152.1 8.4 Q 148.926 8.4 146.362 8.487 A 118.974 118.974 0 0 0 146 8.5 Q 143.3 8.6 141.1 8.8 Z" vector-effect="non-scaling-stroke"/></g></svg>